<svg width="160" height="169" viewBox="0 0 160 169" fill="none" xmlns="http://www.w3.org/2000/svg">
<g opacity="0.05" clip-path="url(#clip0_1831_428)">
<path d="M3.992 -26.5576V102.616C3.992 105.552 5.32425 108.325 7.6081 110.147L74.1388 163.219C77.6189 165.993 82.5401 166.02 86.0746 163.301L152.85 111.425C155.215 109.603 156.602 106.776 156.602 103.812V-26.5576H3.992Z" stroke="#8A1826" stroke-width="6.74279" stroke-miterlimit="10"/>
<path d="M13.6408 102.589V-16.9329H146.974V103.785L80.1715 155.661L13.6408 102.589Z" fill="#8A1826"/>
<path d="M46.1347 87.5535C50.5392 91.9581 55.6507 95.411 61.3875 97.858C67.3146 100.359 73.5952 101.61 80.0661 101.61C86.537 101.61 92.8176 100.359 98.7448 97.858C104.454 95.4382 109.593 91.9581 113.998 87.5535C118.402 83.1489 121.855 78.0375 124.275 72.3007C126.776 66.3735 128.054 60.0929 128.054 53.622C128.054 47.1511 126.803 40.8706 124.275 34.9434C121.855 29.2338 118.402 24.0951 113.998 19.6906C109.593 15.286 104.482 11.833 98.7448 9.41326C92.8448 6.9119 86.537 5.63403 80.0661 5.63403C73.5952 5.63403 67.3146 6.88471 61.3875 9.41326C55.6779 11.833 50.5392 15.286 46.1347 19.6906C41.7301 24.0951 38.2771 29.2066 35.8574 34.9434C33.356 40.8434 32.0781 47.1511 32.0781 53.622C32.0781 60.0929 33.356 66.3735 35.8574 72.3007C38.2771 78.0103 41.7301 83.1489 46.1347 87.5535ZM50.3489 83.3393C47.7116 80.702 45.4821 77.7656 43.6605 74.6117L47.4669 72.5725C50.8111 75.2914 54.7807 77.6296 59.729 79.9407L67.8584 93.8341C61.3059 91.8493 55.3244 88.2876 50.3489 83.3121M49.9411 26.1071L49.9955 26.4606L65.058 24.7749L69.0003 35.7591L58.6686 53.7036L48.5001 54.2746L42.0564 40.2452C44.4762 34.9162 46.6784 30.9467 49.9411 26.0527M87.1352 37.3904L97.6572 56.3953C95.2374 61.2621 92.7089 64.3072 89.5278 68.8205H69.4354C65.7649 61.7786 65.3027 60.963 61.5506 54.9271L71.5833 37.5263C76.5316 37.1457 81.779 36.7651 87.1352 37.3904ZM94.3402 25.5089L110.409 27.5753C113.59 32.3605 115.683 36.0038 118.293 41.0609L111.741 56.0962L100.267 54.6824L89.9628 36.0582L94.3402 25.5361V25.5089ZM86.537 93.4534C80.8274 94.106 76.8851 93.7797 71.1483 93.3719L62.8285 79.125L68.81 71.8928H89.5278L97.0591 80.6476L86.1564 93.1L86.5098 93.4263L86.537 93.4534ZM109.756 83.3393C104.237 88.8586 97.4125 92.665 90.0172 94.4594L89.419 94.1603L100.675 81.3273C105.623 78.6628 108.37 76.814 112.122 73.796L115.439 76.2702C113.834 78.7716 111.904 81.137 109.756 83.3393ZM117.043 73.5785L113.563 70.9684C114.324 65.6666 114.269 62.404 114.052 58.4616L120.74 43.1272C121.583 46.4986 122.045 50.0331 122.045 53.622C122.045 60.7183 120.305 67.5154 117.043 73.5785ZM109.756 23.932C109.756 23.932 109.838 23.9864 109.865 24.0136L109.783 24.3942L93.1711 22.2191C89.8269 19.3371 86.5098 17.1892 81.6703 15.2588V11.6699C92.2738 12.0506 102.198 16.4007 109.756 23.932ZM78.5708 11.6427V15.2588C73.7312 17.1348 70.4685 18.5215 65.9552 21.5666L51.0286 23.2523C58.5327 16.1017 68.2119 11.9962 78.5708 11.6699M39.5822 42.3115L46.0259 56.3681L46.2162 56.2865C45.8628 60.528 45.754 64.5791 46.2162 69.7177L42.1923 71.8656C39.4734 66.2376 38.0596 60.0658 38.0596 53.622C38.0596 49.7612 38.5762 45.9548 39.5822 42.3115Z" fill="white"/>
</g>
<defs>
<clipPath id="clip0_1831_428">
<rect width="159.38" height="269.684" fill="white" transform="translate(0.619141 -101)"/>
</clipPath>
</defs>
</svg>
